<svg width="915" height="900" viewBox="0 0 915 900" fill="none" xmlns="http://www.w3.org/2000/svg">
<path d="M378.995 350.5C454.662 301.333 642.195 115.3 786.995 -235.5L1148.49 77C1089.16 119 885.795 158.2 786.995 329C663.495 542.5 746 444 682.502 701C665.573 769.518 625.269 801.869 584 827C492.834 882.516 384.648 869.644 343.002 854.5C282.503 832.5 69.4952 597 378.995 350.5Z" fill="#FF7200" fill-opacity="0.27"/>
<path d="M277.999 201.047C406.421 117.56 724.704 -198.33 970.46 -794L1584 -263.365C1483.3 -192.048 1138.14 -125.485 970.46 164.539C760.855 527.069 900.883 359.813 793.114 796.207C764.383 912.553 695.977 967.486 625.935 1010.16C471.208 1104.43 287.594 1082.57 216.912 1056.86C114.232 1019.5 -247.287 619.612 277.999 201.047Z" fill="#FF7200" fill-opacity="0.27"/>
</svg>
